<svg width="20" height="20" viewBox="0 0 20 20" fill="none" xmlns="http://www.w3.org/2000/svg">
<path d="M9.49316 0.00976562C10.4328 0.105088 11.1659 0.898507 11.166 1.86328V18.1367L11.1562 18.3271C11.0671 19.2042 10.3702 19.9013 9.49316 19.9902L9.30273 20H3.86328L3.67285 19.9902C2.79578 19.9013 2.0989 19.2042 2.00977 18.3271L2 18.1367V1.86328C2.00016 0.898508 2.73318 0.105088 3.67285 0.00976562L3.86328 0H9.30273L9.49316 0.00976562ZM9.91602 17.7256C6.95378 18.003 4.44523 17.8748 3.25 17.7422V18.1367C3.25018 18.4754 3.52457 18.75 3.86328 18.75H5.33301C5.33301 18.5486 5.47604 18.3806 5.66602 18.3418L5.75 18.333H7.41602L7.5 18.3418C7.68997 18.3806 7.83301 18.5486 7.83301 18.75H9.30273C9.64144 18.75 9.91584 18.4754 9.91602 18.1367V17.7256ZM9.91602 5.22559C6.95378 5.503 4.44523 5.37479 3.25 5.24219V16.4834C4.28848 16.6112 6.85209 16.7678 9.91602 16.4707V5.22559ZM17.3193 0.319336C18.2589 0.414843 18.9932 1.20904 18.9932 2.17383V8.13574L18.9834 8.32617C18.8945 9.20333 18.1964 9.90107 17.3193 9.99023L17.1289 10H14.3643L14.1738 9.99023C13.2966 9.90124 12.5987 9.20344 12.5098 8.32617L12.5 8.13574V2.17383C12.5 1.20891 13.2341 0.414669 14.1738 0.319336L14.3643 0.30957H17.1289L17.3193 0.319336ZM15.9043 6.61133C15.7422 6.61133 15.5864 6.67652 15.4736 6.79297L15.3369 6.9209C15.0051 7.2007 14.5835 7.35639 14.1455 7.35645H13.75V8.13574C13.75 8.47456 14.0254 8.75 14.3643 8.75H17.1289C17.4676 8.74986 17.7432 8.47447 17.7432 8.13574V6.61133H15.9043ZM13.75 6.10645H14.1455C14.267 6.1064 14.3847 6.06949 14.4834 6.00195L14.5752 5.92383C14.9235 5.56404 15.4036 5.36133 15.9043 5.36133H17.7432V5.12012H15.9043C15.4035 5.12012 14.9235 4.91744 14.5752 4.55762L14.4834 4.47949C14.3847 4.41197 14.267 4.37504 14.1455 4.375H13.75V6.10645ZM3.86328 1.25C3.52457 1.25 3.25018 1.52461 3.25 1.86328V3.9834C4.28848 4.11124 6.85209 4.26783 9.91602 3.9707V1.86328C9.91584 1.52461 9.64144 1.25 9.30273 1.25H3.86328ZM14.3643 1.55957C14.0254 1.55957 13.75 1.83501 13.75 2.17383V3.125H14.1455C14.5835 3.12505 15.0051 3.28075 15.3369 3.56055L15.4736 3.68848C15.5864 3.80496 15.7422 3.87012 15.9043 3.87012L17.7432 3.88965V2.17383C17.7432 1.8351 17.4676 1.55971 17.1289 1.55957H14.3643Z" fill="currentColor"/>
</svg>
