<svg width="20" height="20" viewBox="0 0 20 20" fill="none" xmlns="http://www.w3.org/2000/svg">
<path d="M14.0231 1.0127C15.2333 1.13059 16.1996 2.11296 16.274 3.35059L16.9948 15.3447C17.1105 17.274 15.6289 18.9121 13.7223 19.0127L13.5367 19.0176H7.76233L7.57581 19.0127C5.71937 18.9141 4.26822 17.3588 4.29846 15.5L4.30627 15.3125L5.13831 3.32715C5.22369 2.0988 6.18605 1.1282 7.38831 1.01172L7.63147 1H13.778L14.0231 1.0127ZM5.55334 15.3994C5.46468 16.6796 6.47906 17.7673 7.76233 17.7676H13.5367C14.812 17.7673 15.8231 16.6929 15.7467 15.4199L15.5504 12.1582C15.3573 12.188 15.1257 12.2219 14.8561 12.2539C13.9291 12.364 12.549 12.4707 10.7115 12.459C9.10447 12.4487 7.83125 12.3424 6.95569 12.2383C6.51792 12.1862 6.17905 12.1348 5.94788 12.0957C5.88517 12.0851 5.83057 12.074 5.78381 12.0654L5.55334 15.3994ZM11.9655 16C12.1956 16 12.3824 16.1869 12.3824 16.417C12.3824 16.6471 12.1956 16.834 11.9655 16.834H9.46545C9.23554 16.8337 9.04944 16.647 9.04944 16.417C9.04944 16.187 9.23554 16.0002 9.46545 16H11.9655ZM7.63147 2.25C6.97484 2.25017 6.42985 2.75897 6.3844 3.41406L5.87073 10.8105L5.91956 10.8203C5.97121 10.8303 6.0504 10.8444 6.15588 10.8623C6.3677 10.8981 6.68669 10.9475 7.10315 10.9971C7.9364 11.0962 9.16361 11.1991 10.7203 11.209C12.5058 11.2203 13.8342 11.1176 14.7096 11.0137C15.0226 10.9765 15.2776 10.9368 15.4752 10.9043L15.026 3.42578C14.9863 2.76575 14.4392 2.25 13.778 2.25H7.63147ZM7.79944 9.75C8.02947 9.75011 8.21545 9.93694 8.21545 10.167C8.21545 10.397 8.02947 10.5839 7.79944 10.584C7.56932 10.584 7.38245 10.3971 7.38245 10.167C7.38245 9.93687 7.56932 9.75 7.79944 9.75ZM9.46545 9.75C9.69557 9.75 9.88245 9.93687 9.88245 10.167C9.88245 10.3971 9.69557 10.584 9.46545 10.584C9.23554 10.5837 9.04944 10.397 9.04944 10.167C9.04944 9.93702 9.23554 9.75024 9.46545 9.75ZM11.1324 9.75C11.3626 9.75 11.5494 9.93687 11.5494 10.167C11.5494 10.3971 11.3626 10.584 11.1324 10.584C10.9024 10.5839 10.7155 10.3971 10.7155 10.167C10.7155 9.93692 10.9024 9.75007 11.1324 9.75ZM12.7994 9.75C13.0295 9.75011 13.2155 9.93694 13.2155 10.167C13.2155 10.397 13.0295 10.5839 12.7994 10.584C12.5693 10.584 12.3824 10.3971 12.3824 10.167C12.3824 9.93687 12.5693 9.75 12.7994 9.75ZM14.4655 9.75C14.6956 9.75 14.8824 9.93687 14.8824 10.167C14.8824 10.3971 14.6956 10.584 14.4655 10.584C14.2355 10.5837 14.0494 10.397 14.0494 10.167C14.0494 9.93702 14.2355 9.75024 14.4655 9.75ZM6.96545 8.91699C7.19557 8.91699 7.38245 9.10387 7.38245 9.33398C7.38227 9.56395 7.19546 9.75 6.96545 9.75C6.73565 9.74976 6.54961 9.5638 6.54944 9.33398C6.54944 9.10402 6.73554 8.91724 6.96545 8.91699ZM10.2994 8.91699C10.5295 8.9171 10.7155 9.10393 10.7155 9.33398C10.7153 9.56389 10.5294 9.74989 10.2994 9.75C10.0694 9.75 9.88262 9.56395 9.88245 9.33398C9.88245 9.10387 10.0693 8.91699 10.2994 8.91699ZM13.6324 8.91699C13.8626 8.91699 14.0494 9.10387 14.0494 9.33398C14.0493 9.56395 13.8625 9.75 13.6324 9.75C13.4025 9.74993 13.2156 9.56391 13.2155 9.33398C13.2155 9.10391 13.4024 8.91706 13.6324 8.91699ZM7.79944 8.08398C8.02936 8.08409 8.21528 8.2701 8.21545 8.5C8.21545 8.73005 8.02947 8.91688 7.79944 8.91699C7.56932 8.91699 7.38245 8.73012 7.38245 8.5C7.38262 8.27003 7.56943 8.08398 7.79944 8.08398ZM9.46545 8.08398C9.69546 8.08398 9.88227 8.27003 9.88245 8.5C9.88245 8.73012 9.69557 8.91699 9.46545 8.91699C9.23554 8.91675 9.04944 8.72997 9.04944 8.5C9.04961 8.27018 9.23565 8.08423 9.46545 8.08398ZM11.1324 8.08398C11.3625 8.08398 11.5493 8.27003 11.5494 8.5C11.5494 8.73012 11.3626 8.91699 11.1324 8.91699C10.9024 8.91692 10.7155 8.73008 10.7155 8.5C10.7156 8.27007 10.9025 8.08405 11.1324 8.08398ZM12.7994 8.08398C13.0294 8.08409 13.2153 8.2701 13.2155 8.5C13.2155 8.73005 13.0295 8.91688 12.7994 8.91699C12.5693 8.91699 12.3824 8.73012 12.3824 8.5C12.3826 8.27003 12.5694 8.08398 12.7994 8.08398ZM14.4655 8.08398C14.6955 8.08398 14.8823 8.27003 14.8824 8.5C14.8824 8.73012 14.6956 8.91699 14.4655 8.91699C14.2355 8.91675 14.0494 8.72997 14.0494 8.5C14.0496 8.27018 14.2357 8.08423 14.4655 8.08398ZM6.96545 7.25C7.19557 7.25 7.38245 7.43687 7.38245 7.66699C7.38245 7.89711 7.19557 8.08398 6.96545 8.08398C6.73554 8.08374 6.54944 7.89696 6.54944 7.66699C6.54944 7.43702 6.73554 7.25024 6.96545 7.25ZM10.2994 7.25C10.5295 7.25011 10.7155 7.43694 10.7155 7.66699C10.7155 7.89704 10.5295 8.08388 10.2994 8.08398C10.0693 8.08398 9.88245 7.89711 9.88245 7.66699C9.88245 7.43687 10.0693 7.25 10.2994 7.25ZM13.6324 7.25C13.8626 7.25 14.0494 7.43687 14.0494 7.66699C14.0494 7.89711 13.8626 8.08398 13.6324 8.08398C13.4024 8.08392 13.2155 7.89707 13.2155 7.66699C13.2155 7.43692 13.4024 7.25007 13.6324 7.25ZM7.79944 6.41699C8.02947 6.4171 8.21545 6.60393 8.21545 6.83398C8.21528 7.06389 8.02936 7.24989 7.79944 7.25C7.56943 7.25 7.38262 7.06395 7.38245 6.83398C7.38245 6.60387 7.56932 6.41699 7.79944 6.41699ZM9.46545 6.41699C9.69557 6.41699 9.88245 6.60387 9.88245 6.83398C9.88227 7.06395 9.69546 7.25 9.46545 7.25C9.23565 7.24976 9.04961 7.0638 9.04944 6.83398C9.04944 6.60402 9.23554 6.41724 9.46545 6.41699ZM11.1324 6.41699C11.3626 6.41699 11.5494 6.60387 11.5494 6.83398C11.5493 7.06395 11.3625 7.25 11.1324 7.25C10.9025 7.24993 10.7156 7.06391 10.7155 6.83398C10.7155 6.60391 10.9024 6.41706 11.1324 6.41699ZM12.7994 6.41699C13.0295 6.4171 13.2155 6.60393 13.2155 6.83398C13.2153 7.06389 13.0294 7.24989 12.7994 7.25C12.5694 7.25 12.3826 7.06395 12.3824 6.83398C12.3824 6.60387 12.5693 6.41699 12.7994 6.41699ZM14.4655 6.41699C14.6956 6.41699 14.8824 6.60387 14.8824 6.83398C14.8823 7.06395 14.6955 7.25 14.4655 7.25C14.2357 7.24976 14.0496 7.0638 14.0494 6.83398C14.0494 6.60402 14.2355 6.41724 14.4655 6.41699ZM6.96545 5.58398C7.19546 5.58398 7.38227 5.77003 7.38245 6C7.38245 6.23012 7.19557 6.41699 6.96545 6.41699C6.73554 6.41675 6.54944 6.22997 6.54944 6C6.54961 5.77018 6.73565 5.58423 6.96545 5.58398ZM10.2994 5.58398C10.5294 5.58409 10.7153 5.7701 10.7155 6C10.7155 6.23005 10.5295 6.41688 10.2994 6.41699C10.0693 6.41699 9.88245 6.23012 9.88245 6C9.88262 5.77003 10.0694 5.58398 10.2994 5.58398ZM13.6324 5.58398C13.8625 5.58398 14.0493 5.77003 14.0494 6C14.0494 6.23012 13.8626 6.41699 13.6324 6.41699C13.4024 6.41692 13.2155 6.23008 13.2155 6C13.2156 5.77007 13.4025 5.58405 13.6324 5.58398ZM7.79944 4.75C8.02947 4.75011 8.21545 4.93694 8.21545 5.16699C8.21545 5.39704 8.02947 5.58388 7.79944 5.58398C7.56932 5.58398 7.38245 5.39711 7.38245 5.16699C7.38245 4.93687 7.56932 4.75 7.79944 4.75ZM9.46545 4.75C9.69557 4.75 9.88245 4.93687 9.88245 5.16699C9.88245 5.39711 9.69557 5.58398 9.46545 5.58398C9.23554 5.58374 9.04944 5.39696 9.04944 5.16699C9.04944 4.93702 9.23554 4.75024 9.46545 4.75ZM11.1324 4.75C11.3626 4.75 11.5494 4.93687 11.5494 5.16699C11.5494 5.39711 11.3626 5.58398 11.1324 5.58398C10.9024 5.58392 10.7155 5.39707 10.7155 5.16699C10.7155 4.93692 10.9024 4.75007 11.1324 4.75ZM12.7994 4.75C13.0295 4.75011 13.2155 4.93694 13.2155 5.16699C13.2155 5.39704 13.0295 5.58388 12.7994 5.58398C12.5693 5.58398 12.3824 5.39711 12.3824 5.16699C12.3824 4.93687 12.5693 4.75 12.7994 4.75ZM14.4655 4.75C14.6956 4.75 14.8824 4.93687 14.8824 5.16699C14.8824 5.39711 14.6956 5.58398 14.4655 5.58398C14.2355 5.58374 14.0494 5.39696 14.0494 5.16699C14.0494 4.93702 14.2355 4.75024 14.4655 4.75ZM6.96545 3.91699C7.19557 3.91699 7.38245 4.10387 7.38245 4.33398C7.38227 4.56395 7.19546 4.75 6.96545 4.75C6.73565 4.74976 6.54961 4.5638 6.54944 4.33398C6.54944 4.10402 6.73554 3.91724 6.96545 3.91699ZM10.2994 3.91699C10.5295 3.9171 10.7155 4.10393 10.7155 4.33398C10.7153 4.56389 10.5294 4.74989 10.2994 4.75C10.0694 4.75 9.88262 4.56395 9.88245 4.33398C9.88245 4.10387 10.0693 3.91699 10.2994 3.91699ZM13.6324 3.91699C13.8626 3.91699 14.0494 4.10387 14.0494 4.33398C14.0493 4.56395 13.8625 4.75 13.6324 4.75C13.4025 4.74993 13.2156 4.56391 13.2155 4.33398C13.2155 4.10391 13.4024 3.91706 13.6324 3.91699Z" fill="currentColor"/>
</svg>
