<svg width="20" height="20" viewBox="0 0 20 20" fill="none" xmlns="http://www.w3.org/2000/svg">
<path d="M14.4453 0.00878906C15.3558 0.101163 16.0663 0.870819 16.0664 1.80566V18.1943L16.0576 18.3789C15.9714 19.2288 15.2952 19.905 14.4453 19.9912L14.2607 20H8.20605L8.02148 19.9912C7.17158 19.905 6.49541 19.2288 6.40918 18.3789L6.40039 18.1943V1.80566C6.40047 0.870818 7.11099 0.101162 8.02148 0.00878906L8.20605 0H14.2607L14.4453 0.00878906ZM7.65039 18.1943C7.65048 18.5011 7.89928 18.75 8.20605 18.75H14.2607C14.5674 18.7499 14.8163 18.501 14.8164 18.1943V18.125H7.65039V18.1943ZM7.65039 16.875H8.77441V14.792H7.65039V16.875ZM10.0244 16.875H14.8164V14.792H10.0244V16.875ZM7.65039 13.542H8.77441V10.208H7.65039V13.542ZM10.0244 13.542H14.8164V10.208H10.0244V13.542ZM7.65039 8.95801H8.77441V5.625H7.65039V8.95801ZM10.0244 8.95801H14.8164V5.625H10.0244V8.95801ZM8.20605 1.25C7.89928 1.25 7.65048 1.49891 7.65039 1.80566V4.375H8.77441V1.25H8.20605ZM10.0244 4.375H14.8164V1.80566C14.8163 1.49897 14.5674 1.25009 14.2607 1.25H10.0244V4.375ZM13.9834 2.91699C14.2133 2.91717 14.3992 3.10315 14.3994 3.33301C14.3994 3.56302 14.2134 3.74982 13.9834 3.75H12.3164L12.2324 3.74219C12.0425 3.70338 11.8994 3.5344 11.8994 3.33301C11.8996 3.10304 12.0864 2.91699 12.3164 2.91699H13.9834Z" fill="currentColor"/>
</svg>
