<svg width="20" height="20" viewBox="0 0 20 20" fill="none" xmlns="http://www.w3.org/2000/svg">
<path d="M18.9561 3.00586C19.5424 3.06553 19.9999 3.56105 20 4.16309V16.0039L19.9941 16.123C19.9383 16.6701 19.5032 17.1055 18.9561 17.1611L18.8369 17.167H1.16309L1.04395 17.1611C0.49682 17.1055 0.0616887 16.6701 0.00585938 16.123L0 16.0039V4.16309C0.000129925 3.56105 0.45763 3.06553 1.04395 3.00586L1.16309 3H18.8369L18.9561 3.00586ZM16.7744 13.8906C15.6037 13.847 14.2197 13.844 13.0723 13.9717L12.5957 14.0342C11.9547 14.1342 11.467 14.2755 10.9492 14.4277C10.5597 14.5422 10.1508 14.6639 9.66504 14.7686L9.15234 14.8672C7.50336 15.1428 5.39534 15.1387 3.72949 15.0723C2.89065 15.0388 2.15208 14.9891 1.62305 14.9473C1.48367 14.9363 1.35853 14.9243 1.25 14.915V15.917H18.75V14.0078C18.6612 14.0006 18.5572 13.992 18.4404 13.9834C18.0222 13.9525 17.4374 13.9154 16.7744 13.8906ZM16.7832 11.9805C15.6125 11.9451 14.2205 11.9416 13.0596 12.0459L12.5781 12.0977C11.9322 12.1788 11.4363 12.2932 10.916 12.415C10.5249 12.5067 10.1184 12.6026 9.63867 12.6855L9.13281 12.7637C7.4889 12.9849 5.39115 12.9834 3.72852 12.9297C2.89244 12.9027 2.15659 12.8619 1.62988 12.8281C1.48733 12.819 1.36001 12.8095 1.25 12.8018V13.6602C1.3772 13.6716 1.53576 13.6866 1.7207 13.7012C2.23758 13.742 2.96006 13.7916 3.7793 13.8242C5.43012 13.89 7.43079 13.8871 8.94629 13.6338L9.40137 13.5469C9.83378 13.4537 10.2064 13.3426 10.5977 13.2275C11.1207 13.0738 11.676 12.9125 12.4043 12.7988L12.9258 12.7295C14.1762 12.5898 15.6383 12.5975 16.8213 12.6416C17.5028 12.667 18.1025 12.7055 18.5322 12.7373C18.6104 12.7431 18.6835 12.7486 18.75 12.7539V12.0752C18.6633 12.0695 18.5626 12.0624 18.4502 12.0557C18.0317 12.0306 17.4471 12.0005 16.7832 11.9805ZM16.791 10.0586C15.6201 10.0318 14.2208 10.0288 13.0469 10.1084L12.5586 10.1484C11.9074 10.2102 11.4039 10.2972 10.8818 10.3887C10.4896 10.4574 10.085 10.5283 9.61133 10.5898L9.1123 10.6475C7.47528 10.8135 5.38821 10.813 3.72852 10.7725C2.89529 10.7521 2.16223 10.7218 1.6377 10.6963C1.49165 10.6892 1.36167 10.6808 1.25 10.6748V11.5479C1.37536 11.557 1.53028 11.5695 1.70996 11.5811C2.22669 11.6142 2.94863 11.6532 3.76855 11.6797C5.41879 11.733 7.43004 11.7311 8.96582 11.5244L9.42578 11.4551C9.86239 11.3796 10.2395 11.2902 10.6318 11.1982C11.1563 11.0754 11.7061 10.9474 12.4219 10.8574L12.9414 10.8018C14.1857 10.6896 15.6405 10.6958 16.8213 10.7314C17.5004 10.752 18.0976 10.783 18.5254 10.8086C18.6065 10.8135 18.6816 10.8179 18.75 10.8223V10.1289C18.6657 10.1247 18.5687 10.1201 18.4609 10.1152C18.042 10.0962 17.4565 10.0738 16.791 10.0586ZM16.7979 8.05273C15.6264 8.03475 14.2196 8.03301 13.0332 8.08691L12.54 8.11328C11.8822 8.15501 11.3704 8.21438 10.8467 8.27539C10.4534 8.3212 10.0518 8.36865 9.58398 8.40918L9.09082 8.44727C7.46283 8.55765 5.38732 8.55746 3.73047 8.53027C2.89958 8.51664 2.16916 8.49556 1.64648 8.47852C1.49646 8.47362 1.36337 8.46802 1.25 8.46387V9.42285C1.37326 9.42952 1.52402 9.43783 1.69824 9.44629C2.21529 9.47139 2.93841 9.50238 3.75977 9.52246C5.40984 9.5628 7.4314 9.56198 8.98633 9.4043L9.4502 9.35059C9.8913 9.29333 10.2728 9.2261 10.666 9.15723C11.1916 9.06517 11.7372 8.97105 12.4414 8.9043L12.957 8.86133C14.194 8.77722 15.6407 8.78164 16.8193 8.80859C17.4961 8.82407 18.0916 8.84784 18.5176 8.86719C18.6016 8.87101 18.6797 8.87455 18.75 8.87793V8.10059C18.6683 8.09786 18.575 8.09495 18.4717 8.0918C18.0521 8.07899 17.4649 8.06298 16.7979 8.05273ZM13.5439 6.05469L12.5195 6.07812C11.8542 6.09928 11.3355 6.12962 10.8105 6.16016C10.5478 6.17544 10.2832 6.19052 9.99902 6.20508L9.07031 6.24512C7.4533 6.30006 5.388 6.29976 3.7334 6.28613C2.90512 6.27931 2.17715 6.26927 1.65625 6.26074C1.50192 6.25821 1.36541 6.25517 1.25 6.25293V7.21289C1.37111 7.21722 1.51783 7.22301 1.68652 7.22852C2.20406 7.24539 2.92827 7.26677 3.75098 7.28027C5.4012 7.30735 7.43302 7.30585 9.00586 7.19922L9.47559 7.16406C9.9217 7.12542 10.3082 7.07909 10.7021 7.0332C11.2281 6.97194 11.7671 6.91018 12.46 6.86621L12.9727 6.83887C14.2015 6.78292 15.6406 6.78467 16.8174 6.80273C17.4917 6.81309 18.0845 6.82885 18.5088 6.8418C18.5964 6.84447 18.6773 6.84727 18.75 6.84961V6.07129C18.6706 6.06998 18.5807 6.0689 18.4814 6.06738C18.0609 6.06094 17.4725 6.05301 16.8037 6.04785C15.7989 6.04011 14.6159 6.03786 13.5439 6.05469ZM1.25 5.00293C1.36928 5.00504 1.51288 5.00806 1.67676 5.01074C2.195 5.01923 2.91918 5.02934 3.74316 5.03613C5.39447 5.04974 7.43795 5.04912 9.02734 4.99512L9.93555 4.95703C10.2141 4.94275 10.4755 4.9274 10.7383 4.91211C11.2644 4.88151 11.7974 4.85082 12.4805 4.8291L13.5225 4.80469C14.6112 4.78758 15.8064 4.79009 16.8135 4.79785C17.4858 4.80304 18.0771 4.8109 18.5 4.81738C18.5914 4.81878 18.6751 4.82008 18.75 4.82129V4.25H1.25V5.00293Z" fill="currentColor"/>
</svg>
